
<svg width="1440px" height="441px" viewBox="0 0 1440 441" version="1.1" xmlns="http://www.w3.org/2000/svg" xmlns:xlink="http://www.w3.org/1999/xlink">
    <!-- Generator: Sketch 49.3 (51167) - http://www.bohemiancoding.com/sketch -->
    <desc>Created with Sketch.</desc>
    <defs></defs>
    <g id="Page-1" stroke="none" stroke-width="1" fill="none" fill-rule="evenodd">
        <g id="Promotion-Page" transform="translate(0.000000, -802.000000)">
            <g id="Waves" transform="translate(0.000000, 802.000000)">
                <g id="wave-1" fill="#4154DA" fill-opacity="0.497537364">
                    <path d="M813,25.0661195 L827.366221,23.423124 C834.32863,22.6268668 841.355452,22.5646765 848.330864,23.237578 L873.800253,25.6945502 C874.591766,25.7709056 875.382341,25.8566994 876.171807,25.9519131 L917.147965,30.8938474 C927.872615,32.1872952 938.747948,31.3060163 949.124407,28.3026474 L963.571346,24.1211163 C964.422948,23.8746281 965.27779,23.6394757 966.135645,23.4157215 L1020.47809,9.24159869 C1033.74451,5.78132049 1047.58077,5.08600051 1061.12727,7.19883664 L1100.70991,13.3725101 C1101.39674,13.4796334 1102.08242,13.5939151 1102.76686,13.7153368 L1165.63529,24.8683807 C1179.71329,27.3658596 1194.16317,26.8154208 1208.01038,23.2541875 L1277.11193,5.48260878 C1292.05114,1.64053289 1307.78964,2.26914912 1322.37484,7.29046862 L1342.80269,14.3232684 C1344.09072,14.7667028 1345.36955,15.2364095 1346.63838,15.7320943 L1374.11668,26.466828 C1393.01226,33.8486169 1413.99102,33.8650776 1432.89816,26.5129499 L1440,23.7513677 L1440,225.253096 L813,225.253096 L813,25.0661195 Z" id="Rectangle-3"></path>
                    <path d="M0,25.0661195 L49.5753001,17.7785432 C62.114269,15.9353129 74.889332,16.4924228 87.2202409,19.4202078 L147.763973,33.7953877 C159.323172,36.539942 171.278956,37.2027187 183.070687,35.7526384 L292.843927,22.2533471 C300.264993,21.3407466 307.765,21.2633226 315.203324,22.0225269 L409.812006,31.6789125 C425.763943,33.3070723 441.873505,31.0753436 456.782061,25.1719436 L502.412787,7.10336452 C527.332644,-2.76425006 555.170616,-2.21527769 579.682066,8.62713574 L633.498851,32.4324932 C647.27989,38.5284086 662.260417,41.4309843 677.320945,40.9233124 L754.025323,38.3377017 C761.762415,38.0768938 769.443052,36.9185292 776.912922,34.8858808 L813,25.0661195 L813,225.253096 L0,225.253096 L0,25.0661195 Z" id="Rectangle-3"></path>
                </g>
                <path d="M0,106.927508 C57.3188855,85.4348118 100.404732,74.3554741 129.257541,73.6894949 C138.635125,73.4730419 215.253518,122.830339 310.841809,122.754587 C370.442836,122.707354 654.680994,40 747.55643,73.6894949 C781.200529,85.8935041 844.96068,102.537035 1023.4829,106.927508 C1066.80504,107.992948 1190.97102,40.6453033 1265.4925,40.6453033 C1302.21556,40.6453033 1245.87372,83.852858 1357.24779,83.852858 C1383.40723,83.852858 1410.9913,80.4650703 1440,73.6894949 L1440,281.689495 L0,281.689495 L0,106.927508 Z" id="wave-2" fill-opacity="0.75" fill="#4154DA"></path>
                <path d="M0,147.606239 L231.82024,177.349595 C235.131729,177.774471 238.462417,178.033243 241.799791,178.124938 C285.226006,179.318081 310.490526,179.270836 317.593349,177.983203 C324.656501,176.702761 410.843449,156.596045 576.154193,117.663056 L576.154193,117.663056 C590.749681,114.225615 605.931362,114.114514 620.575595,117.337977 C838.064138,165.211173 1005.39553,193.013693 1122.56978,200.745537 C1243.69696,208.738218 1349.50704,191.025119 1440,147.606239 L1440,336.606239 L0,336.606239 L0,147.606239 Z" id="wave-3" fill="#313FA3"></path>
                <path d="M0,330.352057 C151.555965,265.065439 267.200971,230.296932 346.93502,226.046538 C394.60084,223.505609 560.803044,325.840184 820.076447,330.352057 C913.250382,331.973469 1049.48029,270.568534 1258.66369,236.738589 C1293.25894,231.143712 1353.70438,236.760774 1440,253.589772 L1440,440.589772 L0,440.589772 L0,330.352057 Z" id="wave-4" fill="#071577"></path>
            </g>
        </g>
    </g>
</svg>