
<svg width="155px" height="238px" viewBox="0 0 155 238" version="1.1" xmlns="http://www.w3.org/2000/svg" xmlns:xlink="http://www.w3.org/1999/xlink">
    <!-- Generator: Sketch 49.3 (51167) - http://www.bohemiancoding.com/sketch -->
    <desc>Created with Sketch.</desc>
    <defs>
        <rect id="path-1" x="0" y="18" width="129" height="220"></rect>
        <polygon id="path-2" points="128.248138 18.0805014 153.912251 1.61099582 153.912251 221.96547 128.248138 238.327346"></polygon>
        <polygon id="path-3" points="25.9914216 1 154.130431 1.56081698 128.630474 18 0 18"></polygon>
        <rect id="path-4" x="0.0787680315" y="17.7007145" width="128.345086" height="220.312327"></rect>
    </defs>
    <g id="Page-1" stroke="none" stroke-width="1" fill="none" fill-rule="evenodd">
        <g id="Promotion-Page" transform="translate(-643.000000, -394.000000)">
            <g id="milk-pack" transform="translate(643.000000, 393.000000)">
                <g id="milk-pak">
                    <g id="Rectangle-2">
                        <use fill="#D8D8D8" fill-rule="evenodd" xlink:href="#path-1"></use>
                        <rect stroke="#979797" stroke-width="1" x="0.5" y="18.5" width="128" height="219"></rect>
                    </g>
                    <path d="M128.5,18.5 L153.5,2.5" id="Line" stroke="#979797" stroke-linecap="square"></path>
                    <path d="M0.5,18.5 L25.5,2.5" id="Line" stroke="#979797" stroke-linecap="square"></path>
                    <path d="M26.5,1.5 L153.5,1.5" id="Line-3" stroke="#979797" stroke-linecap="square"></path>
                    <path d="M128.5,237.5 L153.5,221.5" id="Line" stroke="#979797" stroke-linecap="square"></path>
                    <path d="M153.5,3.5 L153.5,221.5" id="Line-2" stroke="#979797" stroke-linecap="square"></path>
                    <g id="Rectangle-3">
                        <use fill="#B5B5B5" fill-rule="evenodd" xlink:href="#path-2"></use>
                        <path stroke="#000000" stroke-width="1" d="M128.748138,18.3537353 L128.748138,237.415606 L153.412251,221.691269 L153.412251,2.52596266 L128.748138,18.3537353 Z"></path>
                    </g>
                    <g id="Rectangle-4">
                        <use fill="#E5E5E5" fill-rule="evenodd" xlink:href="#path-3"></use>
                        <path stroke="#000000" stroke-width="1" d="M26.1394195,1.50065252 L1.67790268,17.5 L128.483274,17.5 L152.443506,2.05343873 L26.1394195,1.50065252 Z"></path>
                    </g>
                    <g id="Rectangle-5">
                        <use fill="#D8D8D8" fill-rule="evenodd" xlink:href="#path-4"></use>
                        <rect stroke="#000000" stroke-width="1" x="0.578768032" y="18.2007145" width="127.345086" height="219.312327"></rect>
                    </g>
                    <polygon id="Rectangle-6" fill="#F5A623" points="1 121 127.498443 121 127.498443 141 1 141"></polygon>
                    <path d="M0.5,120.5 L128.5,120.5" id="Line-4" stroke="#000000" stroke-linecap="square"></path>
                    <text id="lorem-ipsum,-100%" font-family="Montserrat-Italic, Montserrat" font-size="12" font-style="italic" font-weight="normal" fill="#3E3E3E">
                        <tspan x="8.208" y="89">lorem ipsum, 100%</tspan>
                    </text>
                    <text id="skriv-något-om-aller" font-family="Montserrat-Italic, Montserrat" font-size="6" font-style="italic" font-weight="normal" fill="#3E3E3E">
                        <tspan x="28.44" y="231">skriv något om allergier</tspan>
                    </text>
                    <text id="MILK" font-family="Montserrat-ExtraBold, Montserrat ExtraBold" font-size="40" font-weight="600" fill="#3E3E3E">
                        <tspan x="11.4" y="70">MILK</tspan>
                    </text>
                    <polygon id="Rectangle-7-Copy-6" fill="#F5A623" points="129.229387 120.675569 153.162217 108.238836 153.162217 127.718536 129.229387 140.567352"></polygon>
                    <path d="M128.5,120.5 L153.160948,107.682602" id="Line-5" stroke="#000000" stroke-linecap="square"></path>
                    <path d="M1.5,140.5 L128.5,140.5" id="Line-4" stroke="#000000" stroke-linecap="square"></path>
                    <path d="M129,140.817398 L153.209989,127.195844" id="Line-5" stroke="#000000" stroke-linecap="square"></path>
                </g>
            </g>
        </g>
    </g>
</svg>