
<svg width="228px" height="228px" viewBox="0 0 228 228" version="1.1" xmlns="http://www.w3.org/2000/svg" xmlns:xlink="http://www.w3.org/1999/xlink">
    <!-- Generator: Sketch 49.3 (51167) - http://www.bohemiancoding.com/sketch -->
    <desc>Created with Sketch.</desc>
    <defs></defs>
    <g id="Page-1" stroke="none" stroke-width="1" fill="none" fill-rule="evenodd">
        <g id="Sun" fill="#D8D8D8">
            <circle id="Oval-7" cx="114" cy="114" r="50"></circle>
            <rect id="Rectangle-2" x="112" y="0" width="4" height="48" rx="2"></rect>
            <rect id="Rectangle-2-Copy-5" transform="translate(171.402951, 55.466984) rotate(44.827049) translate(-171.402951, -55.466984) " x="169.402951" y="38.4669844" width="4" height="34" rx="2"></rect>
            <rect id="Rectangle-2-Copy-7" transform="translate(180.473629, 174.296986) rotate(135.258262) translate(-180.473629, -174.296986) " x="178.473629" y="157.296986" width="4" height="34" rx="2"></rect>
            <rect id="Rectangle-2-Copy-6" transform="translate(48.402951, 175.466984) rotate(44.827049) translate(-48.402951, -175.466984) " x="46.4029509" y="158.466984" width="4" height="34" rx="2"></rect>
            <rect id="Rectangle-2-Copy-8" transform="translate(51.444405, 55.320376) rotate(134.967041) translate(-51.444405, -55.320376) " x="49.444405" y="38.3203765" width="4" height="34" rx="2"></rect>
            <rect id="Rectangle-2-Copy-3" transform="translate(24.000000, 114.000000) rotate(90.000000) translate(-24.000000, -114.000000) " x="22" y="90" width="4" height="48" rx="2"></rect>
            <rect id="Rectangle-2-Copy-4" transform="translate(204.000000, 114.000000) rotate(90.000000) translate(-204.000000, -114.000000) " x="202" y="90" width="4" height="48" rx="2"></rect>
            <rect id="Rectangle-2-Copy-2" x="112" y="180" width="4" height="48" rx="2"></rect>
        </g>
    </g>
</svg>